<?xml version="1.0" encoding="UTF-8" standalone="no"?>
<!-- Created with Inkscape (http://www.inkscape.org/) -->

<svg
   width="32"
   height="32"
   viewBox="0 0 8.4666659 8.4666669"
   version="1.1"
   id="svg134154"
   inkscape:version="1.1 (c68e22c387, 2021-05-23)"
   sodipodi:docname="yt_logo.svg"
   xmlns:inkscape="http://www.inkscape.org/namespaces/inkscape"
   xmlns:sodipodi="http://sodipodi.sourceforge.net/DTD/sodipodi-0.dtd"
   xmlns="http://www.w3.org/2000/svg"
   xmlns:svg="http://www.w3.org/2000/svg">
  <sodipodi:namedview
     id="namedview134156"
     pagecolor="#ffffff"
     bordercolor="#666666"
     borderopacity="1.0"
     inkscape:pageshadow="2"
     inkscape:pageopacity="0.0"
     inkscape:pagecheckerboard="0"
     inkscape:document-units="mm"
     showgrid="false"
     units="px"
     inkscape:zoom="11.859035"
     inkscape:cx="23.231233"
     inkscape:cy="14.967491"
     inkscape:window-width="1920"
     inkscape:window-height="1017"
     inkscape:window-x="-8"
     inkscape:window-y="-8"
     inkscape:window-maximized="1"
     inkscape:current-layer="layer1" />
  <defs
     id="defs134151">
    <inkscape:path-effect
       effect="bspline"
       id="path-effect134339"
       is_visible="true"
       lpeversion="1"
       weight="33.333333"
       steps="2"
       helper_size="0"
       apply_no_weight="true"
       apply_with_weight="true"
       only_selected="false" />
  </defs>
  <g
     inkscape:label="Vrstva 1"
     inkscape:groupmode="layer"
     id="layer1">
    <path
       style="fill:#cf0000;stroke:#db0000;stroke-width:0.264583px;stroke-linecap:butt;stroke-linejoin:miter;stroke-opacity:0;fill-opacity:1"
       d="M 0.81776153,1.7432432 C 0.91510947,1.6616916 1.0255418,1.6038461 1.5120572,1.5617984 c 0.4865154,-0.042048 1.3489219,-0.068341 2.2586882,-0.078853 0.9097663,-0.010513 1.8668275,-0.00525 2.4821104,0.0158 0.6152828,0.021054 0.8887288,0.057864 1.0701645,0.089443 0.1814356,0.031579 0.2708311,0.057872 0.368086,0.1289569 0.097255,0.071085 0.2024263,0.1867739 0.2707656,0.2682984 0.068339,0.081524 0.099891,0.1288519 0.1366305,0.2576915 0.03674,0.1288396 0.078809,0.3391828 0.1077057,0.6652097 0.028897,0.3260268 0.044673,0.7677471 0.042034,1.2725766 C 8.2456028,4.685751 8.2245685,5.2536774 8.185109,5.6506754 8.1456494,6.0476734 8.0878051,6.2737921 7.998433,6.4446051 7.9090609,6.6154181 7.7881136,6.7311068 7.6514608,6.8152223 7.5148081,6.8993379 7.3623093,6.9519237 6.4000065,6.9861309 5.4377036,7.020338 3.6655634,7.0361137 2.6716898,7.0256229 1.6778161,7.015132 1.4622145,6.9783219 1.2623919,6.9231432 1.0625694,6.8679645 0.87851918,6.7943445 0.74171923,6.6761161 0.60491929,6.5578877 0.51552347,6.3948718 0.45235527,6.1924017 0.38918706,5.9899317 0.35237704,5.7480372 0.32606728,5.4587955 0.29975752,5.1695539 0.28398179,4.8330049 0.28134194,4.5016943 0.2787021,4.1703838 0.28921926,3.8443521 0.30761982,3.5077866 0.32602039,3.1712212 0.35231324,2.8241554 0.39436516,2.5769438 0.43641707,2.3297322 0.4942614,2.1824921 0.56526886,2.0562292 0.63627633,1.9299664 0.72041359,1.8247948 0.81776153,1.7432432 Z"
       id="path134337"
       inkscape:path-effect="#path-effect134339"
       inkscape:original-d="M 0.8045783,1.7195889 C 0.9152752,1.662008 1.0257075,1.6041625 1.1358752,1.5460524 c 0.8627057,-0.026029 1.7251122,-0.052322 2.5872713,-0.07888 0.9573638,0.00552 1.914425,0.010782 2.8712403,0.015776 0.2737215,0.037076 0.5471676,0.073886 0.8203544,0.1104324 0.089664,0.026559 0.1790597,0.052851 0.2681928,0.07888 0.1054404,0.1159579 0.2106117,0.2316466 0.3155209,0.347073 0.031817,0.047594 0.063369,0.094921 0.094656,0.1419844 0.042335,0.210616 0.084404,0.4209591 0.1262084,0.6310419 0.016042,0.4420026 0.031817,0.8837229 0.047328,1.3251875 -0.02077,0.5682136 -0.041805,1.1361399 -0.063104,1.703813 C 8.1459614,6.0477532 8.0881171,6.2738719 8.030007,6.4997305 7.9093194,6.6156884 7.7883723,6.7313772 7.6671579,6.8468035 7.5149177,6.8996559 7.362419,6.9522418 7.2096526,7.004564 5.437706,7.0206049 3.6655658,7.0363807 1.8931254,7.0518921 1.6777797,7.0153452 1.4621781,6.9785351 1.2463076,6.9414598 1.0625146,6.8681014 0.87846441,6.7944814 0.69414598,6.7205952 0.60501119,6.5578373 0.51561539,6.3948214 0.42595321,6.2315378 0.38940628,5.9898983 0.35259626,5.7480038 0.31552091,5.5058397 0.30000913,5.1695421 0.2842334,4.8329931 0.26819278,4.4961727 0.27897492,4.1703926 0.28949208,3.8443609 0.29974487,3.5180582 0.32630337,3.1712426 0.35259626,2.8241768 0.37862507,2.4768391 0.43673633,2.3298576 0.49458067,2.1826175 0.55216157,2.0351098 0.63656675,1.9301987 0.72070398,1.8250271 0.8045783,1.7195889 Z" />
    <path
       style="fill:#ffffff;stroke:#000000;stroke-width:0.264583px;stroke-linecap:butt;stroke-linejoin:miter;stroke-opacity:0;fill-opacity:1"
       d="M 3.4391779,3.0447768 V 5.3007511 L 5.5689438,4.1806518 Z"
       id="path134487" />
  </g>
</svg>
