<?xml version="1.0" encoding="UTF-8" standalone="no"?>
<!-- Created with Inkscape (http://www.inkscape.org/) -->

<svg
   width="32"
   height="32"
   viewBox="0 0 8.4666665 8.4666669"
   version="1.1"
   id="svg124552"
   inkscape:version="1.1 (c68e22c387, 2021-05-23)"
   sodipodi:docname="twitter_logo.svg"
   xmlns:inkscape="http://www.inkscape.org/namespaces/inkscape"
   xmlns:sodipodi="http://sodipodi.sourceforge.net/DTD/sodipodi-0.dtd"
   xmlns="http://www.w3.org/2000/svg"
   xmlns:svg="http://www.w3.org/2000/svg">
  <sodipodi:namedview
     id="namedview124554"
     pagecolor="#ffffff"
     bordercolor="#666666"
     borderopacity="1.0"
     inkscape:pageshadow="2"
     inkscape:pageopacity="0.0"
     inkscape:pagecheckerboard="0"
     inkscape:document-units="mm"
     showgrid="false"
     units="px"
     inkscape:zoom="16.771208"
     inkscape:cx="8.4370787"
     inkscape:cy="15.71145"
     inkscape:window-width="1920"
     inkscape:window-height="1017"
     inkscape:window-x="-8"
     inkscape:window-y="-8"
     inkscape:window-maximized="1"
     inkscape:current-layer="layer1" />
  <defs
     id="defs124549" />
  <g
     inkscape:label="Vrstva 1"
     inkscape:groupmode="layer"
     id="layer1">
    <path
       style="fill:#126db8;fill-opacity:1;stroke:#000000;stroke-width:0.1;stroke-linecap:butt;stroke-linejoin:miter;stroke-miterlimit:4;stroke-dasharray:none;stroke-opacity:0"
       d="M 8.3442007,1.8740985 7.5633262,2.7442157 7.5326911,3.4221488 7.4211341,4.0796525 7.2248658,4.6960014 6.8815203,5.4448163 6.2274347,6.256702 5.2877197,7.0158893 4.3698707,7.4057203 3.3024825,7.6103972 1.8267144,7.5273368 1.1131503,7.3077993 0.37928184,6.8940055 1.0978493,6.8515892 1.7737763,6.7455917 2.7651731,6.2418139 2.0378522,5.9318489 1.5503673,5.5672987 1.249399,5.0645282 1.9028278,5.0178767 1.4764154,4.8154816 1.0548324,4.4592565 0.78464805,4.0136255 0.66932089,3.4023813 1.4278846,3.647799 0.94827628,3.1102128 0.80287035,2.8276378 0.66086512,2.4111443 0.66326997,1.9603037 0.90358321,1.4501953 1.5636943,2.0391797 2.0469572,2.4040272 2.6160664,2.7204938 3.5027892,2.9953248 4.3505858,3.1346529 4.2509882,2.7760071 4.2913327,2.3917561 4.5119759,1.8283818 4.8327247,1.4968227 5.4127847,1.1793068 6.01158,1.1200894 6.5492437,1.2509416 7.1282676,1.6286809 8.1322491,1.2605544 7.9160668,1.7024965 7.4294621,2.1306716 Z"
       id="path124770"
       sodipodi:nodetypes="ccccccccccccccccccccccccccccccccccccccccccccccc" />
  </g>
</svg>
