<svg xmlns="http://www.w3.org/2000/svg" width="48" height="48" viewBox="0 0 48 48"><polygon points="11.89 36.14 15.59 34.81 15.59 34.81 15.62 34.8 15.68 32.55 11.89 36.14"/><path d="M37,19.67l0,0a13.8,13.8,0,0,0-2.16-4v0h0l1.35-3.75-3.61,3.84,2.24-.07v0L32.29,16h-.12v-.15h0l-.15,0v-.11l.38-2.52h0a13.62,13.62,0,0,0-4-2.16l0,0a13.74,13.74,0,0,0-8.66,0l0,0a13.38,13.38,0,0,0-4,2.18l-3.76-1.36h0l3.93,3.71-.07-2.37h0l.35,2.46,0,.16-.16,0,0,.16-.17,0h0l0,0v0l-2.44-.37v0l2.14.08-3.58-3.79,1.35,3.75h0a13.38,13.38,0,0,0-2.18,4s0,0,0,0a13.74,13.74,0,0,0,0,8.66s0,0,0,0a13.38,13.38,0,0,0,2.18,4l-1.34,3.7,3.61-3.78-2.25.07v0h0v0L15.72,32h.12v.15H16v.12l-.38,2.51a13.8,13.8,0,0,0,4,2.16l0,0a13.93,13.93,0,0,0,8.66,0l0,0a13.85,13.85,0,0,0,4-2.15h-.1c.15,0,.15-.07.14-.1v-.26l0-.35c0-.23,0-.46-.05-.69s-.09-.69-.14-1L32,32.27l.09-.08v0s0-.09,0-.14h.17v0l0-.15.09,0c.38.1.77.19,1.15.27l.63.1.31.05.16,0h.08s.05,0,.1-.14l0,.17h0v0a13.38,13.38,0,0,0,2.18-4s0,0,0,0a13.74,13.74,0,0,0,0-8.66Zm-9.65,1.69c0-.56-1.24-1.78-1.24-1.78l-2.66.08-1.81,1.07c-.9,2.42.65,3.21.65,3.21l.94-.61a1,1,0,0,1-.63-.9c0-.74,1-.78,1.91-.54s1.43,2.07,1.4,3-1.4,1.59-1.4,1.59l-.67,0A2.63,2.63,0,0,1,20.4,26l-2-2.9-.28-2.42.15-1.14,1.05-.35L20.21,18l3.05-1.81.18.3.58.28.77-.45,3.36,1.27,2,2.68.8,2.53-.26,3-1.16,2.53-1,.59-.15.66L26,30.68l-1.53,0-1.76.48-3.23-1L19,29.46s4.63-1.79,6.25-2.53a3.37,3.37,0,0,0,1.92-2.09l.39-.2S27.41,21.93,27.36,21.36Z"/><polygon points="32.41 13.19 32.43 13.19 32.34 15.46 36.16 11.84 36.17 11.83 32.41 13.19"/><path d="M35.91,35.92l-.25-.25-.51-.5-1-1c-.56-.54-1.14-1.06-1.72-1.57,0,.26,0,.53,0,.8s0,.46,0,.69v.61s0,.06.16.08h-.16l3.66,1.32A.1.1,0,0,0,36,36Z"/><path d="M34.72,32.38h-.08l-.16,0-.32,0c-.21,0-.42-.05-.63-.06a10,10,0,0,0-1.1,0v0c.58.65,1.16,1.29,1.76,1.92l1,1,.5.51.25.25L36,36a.13.13,0,0,0,.1,0L35,33h0l-.2-.57v0l0,.16C34.77,32.38,34.74,32.38,34.72,32.38Z"/><polygon points="36.16 11.84 36.16 11.84 36.17 11.83 36.16 11.84"/><path d="M38.22,23.84l6.29.16-6.85-4A14.67,14.67,0,0,1,38.22,23.84Z"/><path d="M38.22 24.16a14.67 14.67 0 0 1-.56 3.8l6.85-4zM23.84 9.79L24 3.49h0l-4 6.86A14.5 14.5 0 0 1 24 9.79zM24 9.79a14.5 14.5 0 0 1 3.92.56L24 3.49l.16 6.3zM24 44.51l4-6.85a14.8 14.8 0 0 1-3.8.56zM20 37.66l4 6.85h0l-.16-6.29A14.8 14.8 0 0 1 20 37.66zM10.34 20L3.49 24l6.29-.16A14.67 14.67 0 0 1 10.34 20zM3.49 24l6.85 4a14.67 14.67 0 0 1-.56-3.8z"/><polygon points="32.41 34.81 32.42 34.81 32.41 34.81 32.41 34.81"/><polygon points="11.83 11.83 11.84 11.84 11.84 11.84 11.83 11.83"/></svg>